<?xml version="1.0" encoding="UTF-8"?>
<svg width="180px" height="77px" viewBox="0 0 180 77" version="1.1" xmlns="http://www.w3.org/2000/svg" xmlns:xlink="http://www.w3.org/1999/xlink">
    <!-- Generator: Sketch 56.2 (81672) - https://sketch.com -->
    <title>Bit-Academy-Logo-White-/-bit_academy_logo_white</title>
    <desc>Created with Sketch.</desc>
    <g id="Symbols" stroke="none" stroke-width="1" fill="none" fill-rule="evenodd">
        <g id="Header-menu" fill="#FFFFFF" fill-rule="nonzero">
            <g id="Group-10">
                <g id="bit_academy_logo_white">
                    <path d="M12.2434371,8.76395658 C14.3914193,8.76395658 16.2458175,9.24367823 17.8066836,10.2031357 C19.3675517,11.1625934 20.5489238,12.4800377 21.3508379,14.1555085 C22.15275,15.830979 22.553702,17.7570254 22.553702,19.9337054 C22.553702,22.0817446 22.14559,24.0006309 21.3293579,25.6904219 C20.5131238,27.3802128 19.3317517,28.6976572 17.7852036,29.6427945 C16.2386575,30.5879317 14.3771013,31.0604934 12.2004791,31.0604934 C10.768491,31.0604934 9.43676084,30.7382923 8.20525073,30.0938805 C6.97374062,29.4494686 6.02864254,28.583106 5.36992848,27.4947659 L5.36992848,30.7168087 L1.20286411,30.7168087 L1.20286411,0.0429606038 L5.36992848,0.0429606038 L5.36992848,12.2867235 C6.02864254,11.2270242 6.97374062,10.3749813 8.20525073,9.73056947 C9.43676084,9.08615761 10.782809,8.76395658 12.2434371,8.76395658 Z M18.3436776,13.446659 L5.36992848,13.446659 L5.36992848,26.4637122 L18.3436776,26.4637122 L18.3436776,13.446659 Z M26.6778064,0 L30.8448708,0 L30.8448708,4.16717537 L26.6778064,4.16717537 L26.6778064,0 Z M26.6778064,30.7168087 L26.6778064,9.10764121 L30.8448708,9.10764121 L30.8448708,30.7168087 L26.6778064,30.7168087 Z M49.1455884,26.9362784 L49.1455884,30.7168087 L45.7517941,30.7168087 C43.5751719,30.7168087 41.8424917,30.0867267 40.5537036,28.8265436 C39.2649135,27.5663607 38.6205295,25.8336349 38.6205295,23.6283145 L38.6205295,12.7163293 L34.1957071,12.7163293 L34.1957071,9.10764121 L38.6205295,9.10764121 L38.6205295,2.31987081 L42.7875938,2.31987081 L42.7875938,9.10764121 L49.1455884,9.10764121 L49.1455884,12.7163293 L42.7875938,12.7163293 L42.7875938,26.9362784 L49.1455884,26.9362784 Z M21.3937959,46.0268825 L21.3937959,67.6360502 L17.2267315,67.6360502 L17.2267315,64.7147314 C16.7112155,65.6598687 15.8162374,66.4403111 14.5417673,67.0560824 C13.2672972,67.6718537 11.8854491,67.9797347 10.3961829,67.9797347 C8.21956073,67.9797347 6.35084457,67.5000132 4.78997643,66.5405555 C3.22911029,65.5810981 2.04057618,64.2636537 1.22434411,62.588183 C0.408110036,60.9127122 0,59.0009861 0,56.8529467 C0,54.6762669 0.408110036,52.7502205 1.22434411,51.0747498 C2.04057618,49.399279 3.22911029,48.0818347 4.78997643,47.1223772 C6.35084457,46.1629195 8.20524073,45.6831981 10.3532229,45.6831981 C11.7565711,45.6831981 13.0811412,45.9839189 14.3269693,46.58537 C15.5727994,47.186821 16.5393775,47.9601037 17.2267315,48.905241 L17.2267315,46.0268825 L21.3937959,46.0268825 Z M17.2696915,50.3659003 L4.21002438,50.3659003 L4.21002438,63.3829537 L17.2696915,63.3829537 L17.2696915,50.3659003 Z M36.3866373,67.9797347 C34.1813771,67.9797347 32.2697009,67.471373 30.6515547,66.4546345 C29.0334066,65.4378959 27.7947565,64.0846513 26.9355624,62.3948604 C26.0763703,60.7050694 25.6467803,58.8434633 25.6467803,56.8099861 C25.6467803,54.7765089 26.0763703,52.9149027 26.9355624,51.2251118 C27.7947565,49.5353208 29.0334066,48.1820763 30.6515547,47.1653378 C32.2697009,46.1485991 34.1813771,45.6402375 36.3866373,45.6402375 C38.0763834,45.6402375 39.6515475,45.9624385 41.1121757,46.6068504 C42.5728038,47.251262 43.7756559,48.1677451 44.720768,49.3563268 C45.6658801,50.5449087 46.2386661,51.9411132 46.4391442,53.5449826 L42.2720798,53.5449826 C42.0716018,52.3134401 41.4200577,51.2967168 40.3174256,50.4947821 C39.2147955,49.6928474 37.9331854,49.291886 36.4725573,49.291886 C34.3818551,49.291886 32.7780509,49.9935683 31.6611008,51.396954 C30.5441507,52.8003397 29.9856827,54.6046657 29.9856827,56.8099861 C29.9856827,58.9866659 30.5513087,60.7838318 31.6825808,62.2015378 C32.8138509,63.6192439 34.4104931,64.3280862 36.4725573,64.3280862 C37.9331854,64.3280862 39.1861555,63.9700849 40.2315076,63.2540719 C41.2768577,62.5380588 41.9713618,61.5642955 42.3150398,60.332753 L46.4391442,60.332753 C46.0954681,62.623995 45.014332,64.471281 43.1957079,65.8746667 C41.3770837,67.2780524 39.1074155,67.9797347 36.3866373,67.9797347 Z M70.5823443,46.0268825 L70.5823443,67.6360502 L66.4152799,67.6360502 L66.4152799,64.7147314 C65.8997639,65.6598687 65.0047858,66.4403111 63.7303157,67.0560824 C62.4558456,67.6718537 61.0739995,67.9797347 59.5847313,67.9797347 C57.4081091,67.9797347 55.539393,67.5000132 53.9785248,66.5405555 C52.4176587,65.5810981 51.2291266,64.2636537 50.4128925,62.588183 C49.5966584,60.9127122 49.1885484,59.0009861 49.1885484,56.8529467 C49.1885484,54.6762669 49.5966584,52.7502205 50.4128925,51.0747498 C51.2291266,49.399279 52.4176587,48.0818347 53.9785248,47.1223772 C55.539393,46.1629195 57.3937891,45.6831981 59.5417713,45.6831981 C60.9451194,45.6831981 62.2696896,45.9839189 63.5155197,46.58537 C64.7613478,47.186821 65.7279259,47.9601037 66.4152799,48.905241 L66.4152799,46.0268825 L70.5823443,46.0268825 Z M66.4582399,50.3659003 L53.3985728,50.3659003 L53.3985728,63.3829537 L66.4582399,63.3829537 L66.4582399,50.3659003 Z M96.2291246,36.9622019 L96.2291246,67.6360502 L92.0620602,67.6360502 L92.0620602,64.4140074 C91.4033462,65.5023473 90.4582481,66.3687101 89.226738,67.013122 C87.9952279,67.6575336 86.6634997,67.9797347 85.2315116,67.9797347 C83.0835294,67.9797347 81.2291313,67.5000132 79.6682651,66.5405555 C78.107397,65.5810981 76.9188649,64.2636537 76.1026328,62.588183 C75.2863987,60.9127122 74.8782887,59.0009861 74.8782887,56.8529467 C74.8782887,54.7049073 75.2863987,52.7860209 76.1026328,51.09623 C76.9188649,49.406439 78.100237,48.0818347 79.6467851,47.1223772 C81.1933333,46.1629195 83.0405694,45.6831981 85.1885516,45.6831981 C86.6491797,45.6831981 87.9952279,46.0053991 89.226738,46.649811 C90.4582481,47.2942226 91.4033462,48.1462655 92.0620602,49.2059648 L92.0620602,36.9622019 L96.2291246,36.9622019 Z M92.0620602,50.3659003 L79.0883131,50.3659003 L79.0883131,63.3829537 L92.0620602,63.3829537 L92.0620602,50.3659003 Z M121.360393,60.5905164 C120.959437,62.8244774 119.856821,64.6144832 118.052517,65.9605879 C116.248212,67.3066926 114.014344,67.9797347 111.350846,67.9797347 C109.174224,67.9797347 107.262548,67.464213 105.615761,66.4331541 C103.968975,65.4020952 102.701685,64.0273707 101.813851,62.3089394 C100.926019,60.5905078 100.482109,58.7145816 100.482109,56.6811045 C100.482109,54.6476271 100.897379,52.7931809 101.727933,51.1177104 C102.558485,49.4422396 103.761337,48.1104753 105.336525,47.1223772 C106.911712,46.1342791 108.773268,45.6402375 110.921252,45.6402375 C113.069234,45.6402375 114.91647,46.1056389 116.463018,47.036456 C118.009565,47.9672731 119.183777,49.2131172 119.985691,50.7740257 C120.787605,52.3349343 121.188555,54.04618 121.188555,55.907814 C121.188555,56.4806246 121.159915,57.0247863 121.102637,57.5403157 L104.563255,57.5403157 C104.735093,59.6024335 105.436757,61.2635591 106.668268,62.5237422 C107.899778,63.7839253 109.460622,64.4140074 111.350846,64.4140074 C112.926032,64.4140074 114.214802,64.0846461 115.217194,63.4259141 C116.219586,62.767182 116.87829,61.8220589 117.193328,60.5905164 L121.360393,60.5905164 Z M110.921252,48.991162 C109.231506,48.991162 107.849658,49.4565636 106.775666,50.3873807 C105.701675,51.3181976 105.007171,52.6857621 104.692133,54.4901153 L116.97853,54.4901153 C116.835332,52.8289647 116.233906,51.4972004 115.174234,50.4947821 C114.114564,49.4923636 112.696916,48.991162 110.921252,48.991162 Z M150.057293,45.6831981 C152.377114,45.6831981 154.22435,46.4278406 155.59906,47.9171477 C156.973768,49.406455 157.661112,51.3969416 157.661112,53.8886672 L157.661112,67.6360502 L153.494048,67.6360502 L153.494048,50.3229397 L143.613379,50.3229397 L143.613379,67.6360502 L139.489272,67.6360502 L139.489272,50.3229397 L129.651564,50.3229397 L129.651564,67.6360502 L125.484497,67.6360502 L125.484497,46.0268825 L129.651564,46.0268825 L129.651564,48.8622804 C130.310278,47.9171431 131.169458,47.1581804 132.229128,46.58537 C133.2888,46.0125595 134.448694,45.7118385 135.708842,45.6831981 L136.267316,45.6831981 C137.670664,45.7118385 138.959434,46.0125595 140.133665,46.58537 C141.307895,47.1581804 142.267313,47.9171431 143.011947,48.8622804 C143.756579,47.9171431 144.708837,47.1581804 145.868749,46.58537 C147.028659,46.0125595 148.310269,45.7118385 149.713617,45.6831981 L150.057293,45.6831981 Z M169.131279,76.4000068 L165.136053,76.4000068 L168.057295,67.8508531 L160.02388,45.9839221 L164.319825,45.9839221 L169.990469,62.2230182 L175.704074,45.9839221 L180.000016,45.9839221 L172.396197,66.86276 L169.131279,76.4000068 Z" id="Bit-Academy-Logo-White-/-bit_academy_logo_white"></path>
                </g>
            </g>
        </g>
    </g>
</svg>